<?xml version="1.0" encoding="UTF-8" standalone="no"?>
<!-- Created with Inkscape (http://www.inkscape.org/) -->

<svg
   xmlns:dc="http://purl.org/dc/elements/1.1/"
   xmlns:cc="http://creativecommons.org/ns#"
   xmlns:rdf="http://www.w3.org/1999/02/22-rdf-syntax-ns#"
   xmlns:svg="http://www.w3.org/2000/svg"
   xmlns="http://www.w3.org/2000/svg"
   xmlns:xlink="http://www.w3.org/1999/xlink"
   xmlns:sodipodi="http://sodipodi.sourceforge.net/DTD/sodipodi-0.dtd"
   xmlns:inkscape="http://www.inkscape.org/namespaces/inkscape"
   width="128"
   height="128"
   id="svg2"
   version="1.1"
   inkscape:version="0.48.0 r9654"
   sodipodi:docname="icon.svg">
  <defs
     id="defs4">
    <linearGradient
       id="linearGradient3805">
      <stop
         style="stop-color:#ffffff;stop-opacity:0;"
         offset="0"
         id="stop3807" />
      <stop
         style="stop-color:#ffffff;stop-opacity:0.75294119;"
         offset="1"
         id="stop3809" />
    </linearGradient>
    <linearGradient
       id="linearGradient3793">
      <stop
         style="stop-color:#ffffff;stop-opacity:0.3764706;"
         offset="0"
         id="stop3795" />
      <stop
         id="stop3803"
         offset="0.5"
         style="stop-color:#ffffff;stop-opacity:0.50196081;" />
      <stop
         id="stop3801"
         offset="0.5"
         style="stop-color:#ffffff;stop-opacity:0.0627451;" />
      <stop
         style="stop-color:#ffffff;stop-opacity:0.3764706;"
         offset="1"
         id="stop3797" />
    </linearGradient>
    <linearGradient
       id="linearGradient3792">
      <stop
         style="stop-color:#0000ff;stop-opacity:0;"
         offset="0"
         id="stop3794" />
      <stop
         style="stop-color:#0000ff;stop-opacity:1"
         offset="1"
         id="stop3796" />
    </linearGradient>
    <linearGradient
       inkscape:collect="always"
       xlink:href="#linearGradient3793"
       id="linearGradient3799"
       x1="120.3336"
       y1="14.753181"
       x2="8.65625"
       y2="110.75318"
       gradientUnits="userSpaceOnUse"
       gradientTransform="matrix(0.89002675,0,0,0.89013179,7.0428037,931.39091)" />
    <radialGradient
       inkscape:collect="always"
       xlink:href="#linearGradient3805"
       id="radialGradient3811"
       cx="63.994924"
       cy="64.003185"
       fx="63.994924"
       fy="64.003185"
       r="56.161326"
       gradientTransform="matrix(0.89002675,0,0,0.99614933,7.0428037,924.60545)"
       gradientUnits="userSpaceOnUse" />
    <filter
       inkscape:collect="always"
       id="filter3827">
      <feGaussianBlur
         inkscape:collect="always"
         stdDeviation="3.1512023"
         id="feGaussianBlur3829" />
    </filter>
  </defs>
  <sodipodi:namedview
     id="base"
     pagecolor="#ffffff"
     bordercolor="#666666"
     borderopacity="1.0"
     inkscape:pageopacity="0.0"
     inkscape:pageshadow="2"
     inkscape:zoom="4"
     inkscape:cx="59.466114"
     inkscape:cy="73.530332"
     inkscape:document-units="px"
     inkscape:current-layer="layer1"
     showgrid="false"
     inkscape:window-width="1600"
     inkscape:window-height="1157"
     inkscape:window-x="0"
     inkscape:window-y="22"
     inkscape:window-maximized="1" />
  <metadata
     id="metadata7">
    <rdf:RDF>
      <cc:Work
         rdf:about="">
        <dc:format>image/svg+xml</dc:format>
        <dc:type
           rdf:resource="http://purl.org/dc/dcmitype/StillImage" />
        <dc:title />
      </cc:Work>
    </rdf:RDF>
  </metadata>
  <g
     inkscape:label="Ebene 1"
     inkscape:groupmode="layer"
     id="layer1"
     transform="translate(0,-924.36218)">
    <path
       id="path3813"
       d="m 63.782009,932.86519 c -4.902935,0.0541 -9.885604,0.83272 -14.796695,2.42005 -26.192481,8.46576 -40.5613551,36.55873 -32.096589,62.75426 0.814316,2.5201 1.817501,4.9408 2.976027,7.2324 -3.771522,-23.82633 10.231759,-47.50907 33.904456,-55.1604 23.672699,-7.65133 48.886882,3.34062 59.770862,24.86805 -0.40146,-2.53612 -0.99353,-5.07384 -1.80787,-7.59393 -6.87761,-21.2839 -26.704139,-34.75487 -47.950191,-34.52043 z m -43.917257,72.40671 c 1.918924,-17.357 16.649891,-30.84868 34.51635,-30.84868 19.170379,0 34.711043,15.54247 34.711043,34.71518 0,6.9373 -2.031403,13.4062 -5.534854,18.8318 -0.190329,-9.0832 -11.172976,-17.7125 -25.755149,-19.8054 -15.570031,-2.2347 -29.337221,3.8421 -30.733736,13.5745 -1.396515,9.7324 10.101678,19.4345 25.671709,21.6691 2.790103,0.4005 5.508675,0.5239 8.121494,0.4173 0.508065,0.017 1.016976,0.028 1.529733,0.028 23.594316,0 42.721288,-19.1292 42.721288,-42.7263 0,-23.59716 -19.126972,-42.72635 -42.721288,-42.72635 -23.594314,0 -42.721284,19.12919 -42.721284,42.72635 0,1.3989 0.06331,2.7803 0.194694,4.1447 z"
       style="fill:#000000;fill-opacity:1;stroke:none;filter:url(#filter3827)"
       inkscape:connector-curvature="0" />
    <g
       id="g3000"
       transform="matrix(0.89002675,0,0,0.89013179,-5.262332,107.11962)">
      <path
         inkscape:connector-curvature="0"
         id="path3833"
         d="m 60.944089,930.39361 c -29.42887,9.51068 -45.575756,41.07743 -36.065069,70.50629 0.914934,2.8311 2.039515,5.5413 3.34119,8.1157 -4.237537,-26.76714 11.507581,-53.37448 38.105318,-61.97021 26.597739,-8.59573 54.936292,3.76485 67.165112,27.9494 -0.45106,-2.84916 -1.12531,-5.70497 -2.04027,-8.53611 -9.51067,-29.42886 -41.077412,-45.57574 -70.506281,-36.06507 z"
         style="fill:#0066ff;fill-opacity:1;stroke:none" />
      <g
         id="g2996">
        <path
           style="fill:#000000;fill-opacity:1;stroke:none"
           d="m 76,956.36216 c -26.509669,0 -48,21.49033 -48,48.00004 0,1.5716 0.07113,3.1234 0.21875,4.6562 C 30.37478,989.51909 46.925931,974.36216 67,974.36216 c 21.539105,0 39,17.4609 39,39.00004 0,20.0741 -15.156929,36.6252 -34.65625,38.7812 1.532863,0.1477 3.084675,0.2188 4.65625,0.2188 26.50967,0 48,-21.4903 48,-48 0,-26.50971 -21.49033,-48.00004 -48,-48.00004 z"
           id="path3828"
           inkscape:connector-curvature="0" />
        <path
           sodipodi:type="arc"
           style="fill:#000000;fill-opacity:1;stroke:none"
           id="path3790"
           sodipodi:cx="-103.92857"
           sodipodi:cy="4.6071424"
           sodipodi:rx="13.214286"
           sodipodi:ry="18.392857"
           d="m -90.714288,4.6071424 c 0,10.1580946 -5.916237,18.3928566 -13.214282,18.3928566 -7.29805,0 -13.21429,-8.234762 -13.21429,-18.3928566 0,-10.1580942 5.91624,-18.3928564 13.21429,-18.3928564 7.298045,0 13.214282,8.2347622 13.214282,18.3928564 z"
           transform="matrix(2.3970642,0.34399781,-0.15446505,1.0763517,317.8351,1062.8376)" />
      </g>
    </g>
    <path
       style="fill:url(#linearGradient3799);fill-opacity:1;stroke:url(#radialGradient3811);stroke-width:1;stroke-linecap:butt;stroke-linejoin:round;stroke-opacity:1"
       d="m 63.782009,932.86519 c -4.902935,0.0541 -9.885604,0.83272 -14.796695,2.42005 -26.192481,8.46576 -40.5613551,36.55872 -32.096589,62.75426 0.814316,2.5201 1.817501,4.9408 2.976027,7.2323 -3.771522,-23.82623 10.231759,-47.50897 33.904456,-55.16031 23.672699,-7.65133 48.886882,3.34062 59.770862,24.86806 -0.40146,-2.53613 -0.99353,-5.07385 -1.80787,-7.59394 -6.87761,-21.28389 -26.704139,-34.75487 -47.950191,-34.52042 z m -43.917257,72.40661 c 1.918924,-17.35691 16.649891,-30.84858 34.51635,-30.84858 19.170379,0 34.711043,15.54247 34.711043,34.71518 0,6.9373 -2.031403,13.4062 -5.534854,18.8318 -0.190329,-9.0832 -11.172976,-17.7125 -25.755149,-19.8054 -15.570031,-2.2347 -29.337221,3.8421 -30.733736,13.5745 -1.396515,9.7324 10.101678,19.4344 25.671709,21.6691 2.790103,0.4005 5.508675,0.5239 8.121494,0.4173 0.508065,0.017 1.016977,0.028 1.529733,0.028 23.594316,0 42.721288,-19.1292 42.721288,-42.7263 0,-23.59712 -19.126972,-42.72631 -42.721288,-42.72631 -23.594314,0 -42.721284,19.12919 -42.721284,42.72631 0,1.3989 0.06331,2.7803 0.194694,4.1447 z"
       id="path3008"
       inkscape:connector-curvature="0" />
  </g>
</svg>
